<?xml version="1.0" encoding="UTF-8" standalone="no"?>
<!DOCTYPE svg PUBLIC "-//W3C//DTD SVG 1.1//EN" "http://www.w3.org/Graphics/SVG/1.1/DTD/svg11.dtd">

<!-- Created with Vectornator (http://vectornator.io/) -->
<svg height="100%" stroke-miterlimit="10" style="fill-rule:nonzero;clip-rule:evenodd;stroke-linecap:round;stroke-linejoin:round;" version="1.1" viewBox="0 0 640 640" width="100%" xml:space="preserve" xmlns="http://www.w3.org/2000/svg" xmlns:vectornator="http://vectornator.io" xmlns:xlink="http://www.w3.org/1999/xlink">
<metadata>
<vectornator:setting key="IsTimeLapseWatermarkDisabled" value="false"/>
<vectornator:setting key="UndoHistoryDisabled" value="true"/>
<vectornator:setting key="VNDimensionsVisible" value="true"/>
<vectornator:setting key="VNSnapToGuides" value="true"/>
<vectornator:setting key="WDCMYKEnabledKey" value="false"/>
<vectornator:setting key="WDDisplayWhiteBackground" value="false"/>
<vectornator:setting key="WDDynamicGuides" value="false"/>
<vectornator:setting key="WDGuidesVisible" value="true"/>
<vectornator:setting key="WDIsolateActiveLayer" value="false"/>
<vectornator:setting key="WDOutlineMode" value="false"/>
<vectornator:setting key="WDRulersVisible" value="true"/>
<vectornator:setting key="WDSnapToEdges" value="false"/>
<vectornator:setting key="WDSnapToGrid" value="false"/>
<vectornator:setting key="WDSnapToPoints" value="false"/>
<vectornator:setting key="WDUnits" value="Points"/>
</metadata>
<defs>
<path d="M239.583 176.667L495.95 176.667L495.95 176.667L495.95 493.334L495.95 493.334L239.583 493.334L239.583 493.334L239.583 176.667L239.583 176.667Z" fill-rule="evenodd" id="Fill"/>
<path d="M239.583 176.667L495.95 176.667L495.95 176.667L495.95 493.334L495.95 493.334L239.583 493.334L239.583 493.334L239.583 176.667L239.583 176.667Z" fill-rule="evenodd" id="Fill_2"/>
</defs>
<g id="Capa-1" vectornator:layerName="Capa 1">
<path d="M11.2191 322.679C11.2191 152.144 149.465 13.898 320 13.898C490.535 13.898 628.781 152.144 628.781 322.679C628.781 493.214 490.535 631.46 320 631.46C149.465 631.46 11.2191 493.214 11.2191 322.679Z" fill="#000000" fill-rule="evenodd" opacity="0" stroke="#000000" stroke-linecap="round" stroke-linejoin="round" stroke-width="3.41838"/>
<path d="M-7.17429-34.3031L688.986-34.3031L688.986 647.393L-7.17429 647.393L-7.17429-34.3031Z" fill="#000000" fill-rule="evenodd" opacity="0" stroke="#000000" stroke-linecap="round" stroke-linejoin="round" stroke-width="3.41838"/>
<path d="M319.791-0.00308149L319.791-0.00308149C496.715-0.00308149 640.14 143.422 640.14 320.346L640.14 320.93C640.14 497.853 496.715 641.279 319.791 641.279L319.791 641.279C142.867 641.279-0.557751 497.853-0.557751 320.93L-0.557751 320.346C-0.557751 143.422 142.867-0.00308149 319.791-0.00308149Z" fill="#000000" fill-rule="evenodd" opacity="1" stroke="#000000" stroke-linecap="round" stroke-linejoin="round" stroke-width="3.41838"/>
<path d="M158.795 143.405L175.322 240.775L219.162 499.063L420.359 499.085L432.663 431.069C432.663 431.069 446.736 433.66 459.959 430.824C473.182 427.987 485.555 419.724 485.555 419.724C485.555 419.724 498.534 410.219 507.502 400.48C516.47 390.741 521.428 380.769 521.428 380.769C521.428 380.769 528.632 368.329 532.776 356.945C536.919 345.562 538.001 335.234 538.001 335.234C538.001 335.234 539.211 329.809 539.65 320.213C540.089 310.617 540.965 308.593 539.757 296.85C538.549 285.107 534.818 273.24 534.818 273.24C534.818 273.24 530.764 260.324 524.078 249.325C517.391 238.326 508.073 229.244 508.073 229.244C508.073 229.244 499.721 221.519 490.923 216.666C482.125 211.812 472.882 209.829 472.882 209.829L482.844 143.29L158.795 143.405Z" fill="#ffffff" fill-rule="evenodd" opacity="1" stroke="#000000" stroke-linecap="round" stroke-linejoin="round" stroke-width="3.41838"/>
<path d="M439.948 393.387L450.394 333.4L465.537 246.436C465.537 246.436 475.015 246.857 482.985 254.162C486.519 257.401 487.652 258.632 489.439 261.068C491.681 264.125 494.039 266.853 497.095 273.927C502.7 286.898 503.084 290.426 504.339 304.233C505.863 320.995 498.988 342.965 498.988 342.965C498.988 342.965 492.399 361.243 482.671 373.402C472.944 385.562 470.759 386.606 460.078 391.602C449.398 396.598 439.948 393.387 439.948 393.387Z" fill="#000000" fill-rule="evenodd" opacity="1" stroke="#000000" stroke-linecap="round" stroke-linejoin="round" stroke-width="3.41838"/>
<g opacity="1">
<g opacity="1" vectornator:mask="#Fill">
<clipPath id="ClipPath">
<use overflow="#visible" xlink:href="#Fill"/>
</clipPath>
<g clip-path="url(#ClipPath)">
<path d="M287.695 336.251C291.019 341.526 292.753 348.825 292.898 358.147L292.898 385.572C292.898 393.594 294.849 399.375 298.751 402.916C300.919 405.012 304.713 406.854 310.133 408.444L310.133 425.68L302.437 425.463C292.103 425.174 283.052 422.084 275.283 416.195C267.514 410.305 263.63 401.724 263.63 390.45L263.63 356.521C263.63 347.416 260.884 340.442 255.392 335.6C252.068 332.638 247.298 330.289 241.083 328.555L241.083 315.438C248.093 313.054 253.043 310.416 255.934 307.525C261.065 302.539 263.63 294.915 263.63 284.653L263.63 255.602C263.63 251.917 264.244 248.051 265.473 244.004C267.641 236.994 271.326 231.43 276.53 227.31C281.299 223.553 286.9 221.059 293.331 219.831C297.234 219.036 302.834 218.602 310.133 218.53L310.133 235.766C304.135 237.066 300.052 238.801 297.884 240.969C294.56 244.293 292.898 250.11 292.898 258.421L292.898 283.569C292.898 291.663 291.814 298.095 289.646 302.864C285.96 310.886 278.734 317.39 267.966 322.376C277.722 326.35 284.298 330.975 287.695 336.251Z" fill="#000000" fill-rule="evenodd" opacity="1" stroke="none"/>
</g>
</g>
<g opacity="1" vectornator:mask="#Fill_2">
<clipPath id="ClipPath_2">
<use overflow="#visible" xlink:href="#Fill_2"/>
</clipPath>
<g clip-path="url(#ClipPath_2)">
<path d="M349.482 258.421C349.482 250.399 348.199 244.943 345.634 242.053C343.068 239.162 338.642 237.066 332.355 235.766L332.355 218.53C339.581 218.602 345.146 219.036 349.048 219.831C355.48 221.059 361.117 223.553 365.958 227.31C370.8 231.068 374.16 235.693 376.039 241.185C377.918 246.678 378.858 251.483 378.858 255.602L378.858 284.653C378.858 294.987 381.206 302.575 385.904 307.417C388.794 310.307 393.961 312.981 401.405 315.438L401.405 328.555C395.262 330.289 390.601 332.529 387.421 335.275C381.712 340.189 378.858 347.271 378.858 356.521L378.858 390.45C378.858 401.434 375.064 409.944 367.476 415.978C359.888 422.012 350.746 425.174 340.051 425.463L332.355 425.68L332.355 408.444C337.775 406.854 341.569 404.975 343.737 402.807C347.422 399.194 349.337 393.449 349.482 385.572L349.482 358.147C349.482 347.886 351.469 340.28 355.444 335.329C359.418 330.379 365.742 326.061 374.413 322.376C364.947 317.751 358.425 312.494 354.847 306.604C351.27 300.714 349.482 293.036 349.482 283.569L349.482 258.421Z" fill="#000000" fill-rule="evenodd" opacity="1" stroke="none"/>
</g>
</g>
</g>
</g>
</svg>
